<svg id="visual" viewBox="0 0 900 600" width="900" height="600" xmlns="http://www.w3.org/2000/svg" xmlns:xlink="http://www.w3.org/1999/xlink" version="1.1"><rect x="0" y="0" width="900" height="600" fill="none"></rect><defs><linearGradient id="grad1_0" x1="33.3%" y1="0%" x2="100%" y2="100%"><stop offset="20%" stop-color="#001220" stop-opacity="1"></stop><stop offset="80%" stop-color="#001220" stop-opacity="1"></stop></linearGradient></defs><defs><linearGradient id="grad2_0" x1="0%" y1="0%" x2="66.7%" y2="100%"><stop offset="20%" stop-color="#001220" stop-opacity="1"></stop><stop offset="80%" stop-color="#001220" stop-opacity="1"></stop></linearGradient></defs><g transform="translate(900, 0)"><path d="M0 270.4C-34.1 261.2 -68.3 251.9 -98.3 237.4C-128.4 223 -154.4 203.2 -181 181C-207.6 158.8 -234.8 134.1 -249.8 103.5C-264.8 72.9 -267.6 36.4 -270.4 0L0 0Z" fill="#B205BB"></path></g><g transform="translate(0, 600)"><path d="M0 -270.4C36.8 -256.3 73.6 -242.1 88.4 -213.4C103.2 -184.7 96.1 -141.4 125.2 -125.2C154.2 -108.9 219.6 -119.8 249.8 -103.5C280.1 -87.1 275.2 -43.6 270.4 0L0 0Z" fill="#B205BB"></path></g></svg>