<svg id="visual" viewBox="0 0 540 960" width="540" height="960" xmlns="http://www.w3.org/2000/svg" xmlns:xlink="http://www.w3.org/1999/xlink" version="1.1"><rect x="0" y="0" width="540" height="960" fill="none"></rect><defs><linearGradient id="grad1_0" x1="0%" y1="0%" x2="100%" y2="100%"><stop offset="30%" stop-color="#ffffff" stop-opacity="1"></stop><stop offset="70%" stop-color="#ffffff" stop-opacity="1"></stop></linearGradient></defs><defs><linearGradient id="grad2_0" x1="0%" y1="0%" x2="100%" y2="100%"><stop offset="30%" stop-color="#ffffff" stop-opacity="1"></stop><stop offset="70%" stop-color="#ffffff" stop-opacity="1"></stop></linearGradient></defs><g transform="translate(540, 0)"><path d="M0 189C-17.9 165.6 -35.7 142.2 -54.3 131.2C-73 120.1 -92.4 121.4 -114.6 114.6C-136.7 107.7 -161.7 92.8 -174.6 72.3C-187.5 51.9 -188.2 25.9 -189 0L0 0Z" fill="#B205BB"></path></g><g transform="translate(0, 960)"><path d="M0 -189C20.3 -170.4 40.6 -151.8 57.4 -138.6C74.2 -125.4 87.5 -117.6 108.9 -108.9C130.3 -100.2 159.9 -90.6 174.6 -72.3C189.3 -54 189.2 -27 189 0L0 0Z" fill="#B205BB"></path></g></svg>